<svg width="71" height="25" viewBox="0 0 71 25" fill="none" xmlns="http://www.w3.org/2000/svg">
<g clip-path="url(#clip0_6721_320)">
<path d="M24.7766 1.7571C24.9283 2.02573 25.0307 2.31992 25.0788 2.62545C25.1166 2.99982 25.1327 3.37609 25.1271 3.75236V21.6072C25.1271 23.087 24.7241 23.9543 23.9181 24.209C23.4214 24.3503 22.9065 24.4156 22.3907 24.4025C21.898 24.4164 21.4057 24.3617 20.9277 24.2399C20.6315 24.1631 20.3515 24.0325 20.1013 23.8545C19.8967 23.6832 19.7426 23.4581 19.656 23.2041C19.5298 22.6559 19.4757 22.0933 19.4952 21.5308V10.761C18.9593 11.4255 18.1855 12.4819 17.1737 13.9303C16.1619 15.3786 15.5151 16.2849 15.2332 16.6492L14.6608 17.4053C14.4331 17.6391 14.1698 17.8345 13.8811 17.9842C13.4775 18.2285 13.0154 18.3562 12.5451 18.3533C12.0888 18.3586 11.6392 18.2425 11.2412 18.0167C10.9229 17.8505 10.6374 17.6268 10.3988 17.3565L10.1447 17.002C9.71602 16.4676 8.8784 15.3255 7.63188 13.5758C6.38536 11.8261 5.70691 10.8878 5.59651 10.761V21.604C5.60247 21.9743 5.58636 22.3446 5.54828 22.713C5.49918 23.0009 5.39662 23.2768 5.24603 23.5261C4.92449 24.105 4.09758 24.3944 2.76532 24.3944C1.47164 24.3944 0.667786 24.105 0.353745 23.5261C0.199976 23.2697 0.097806 22.9851 0.0531024 22.6886C0.0150064 22.3039 -0.00109562 21.9173 0.00487282 21.5308V3.68406C-0.00107887 3.31374 0.0150255 2.9434 0.0531024 2.57504C0.10238 2.27467 0.204185 1.98557 0.353745 1.72133C0.675288 1.16411 1.50273 0.885499 2.83606 0.885499C3.33635 0.875258 3.83507 0.945516 4.31355 1.09364C4.72835 1.23512 4.99844 1.37821 5.11741 1.52782L5.30873 1.72133L12.5274 11.3155C16.1362 6.48479 18.544 3.29867 19.7509 1.7571C20.111 1.1782 20.9647 0.88875 22.312 0.88875C23.6592 0.88875 24.4808 1.1782 24.7766 1.7571Z" fill="#FCBC09"/>
<path d="M42.7315 1.83352C42.8253 1.65298 42.9538 1.49322 43.1096 1.36365C43.2653 1.23407 43.445 1.13729 43.6383 1.07899C44.1294 0.937443 44.639 0.8722 45.1495 0.885486C45.6422 0.872891 46.1343 0.927589 46.6125 1.0481C46.9103 1.12053 47.1911 1.25148 47.4389 1.43349C47.6363 1.61216 47.7749 1.84766 47.836 2.10833C47.9646 2.45307 48.0273 2.99945 48.0273 3.75072V21.6056C48.032 21.9825 48.0138 22.3594 47.9727 22.7341C47.9214 23.0283 47.8196 23.3112 47.672 23.57C47.3751 24.1499 46.5477 24.4399 45.1897 24.4399C44.3633 24.4399 43.791 24.3754 43.4727 24.2464C43.1572 24.1206 42.8824 23.909 42.6785 23.635C37.911 17.1977 34.7749 12.9947 33.2701 11.026V21.6105C33.2768 21.9862 33.2607 22.362 33.2219 22.7357C33.1693 23.0298 33.0671 23.3126 32.9196 23.5716C32.6217 24.1516 31.7947 24.4416 30.4389 24.4416C29.1238 24.4416 28.3199 24.1516 28.0273 23.5716C27.8758 23.3028 27.7734 23.0087 27.7251 22.7032C27.6874 22.3294 27.6713 21.9537 27.6768 21.5779V3.619C27.6768 2.80594 27.7781 2.20915 27.9807 1.83027C28.0744 1.64994 28.2027 1.49033 28.3581 1.36077C28.5135 1.23122 28.693 1.13431 28.8859 1.07574C29.3931 0.932445 29.9189 0.867211 30.4453 0.882231C30.9544 0.86604 31.4631 0.925763 31.955 1.05948C32.2418 1.13152 32.5085 1.2689 32.7347 1.46113C32.9968 1.72289 33.2411 2.00213 33.4662 2.29696C37.94 8.45348 40.9298 12.5188 42.4357 14.4929V3.619C42.4293 2.80594 42.5289 2.20915 42.7315 1.83352Z" fill="white"/>
<path d="M69.0836 1.30339C70.1222 2.03406 70.6415 2.74197 70.6415 3.42711C70.6415 3.83364 70.3976 4.4017 69.9099 5.13129L63.0402 15.5239V21.6674C63.0461 22.0382 63.03 22.4091 62.9919 22.778C62.9417 23.0779 62.8394 23.3664 62.6897 23.6301C62.5984 23.7949 62.4755 23.9396 62.328 24.0555C62.1805 24.1714 62.0116 24.2562 61.8312 24.3049C60.7648 24.563 59.6532 24.563 58.5868 24.3049C58.4044 24.2556 58.234 24.1688 58.0863 24.0499C57.9386 23.931 57.8167 23.7825 57.7283 23.6138C57.5793 23.3439 57.4771 23.0502 57.426 22.7455C57.3877 22.3674 57.3716 21.9873 57.3778 21.6072V15.5239L50.508 5.13129C50.0193 4.40278 49.7754 3.83472 49.7765 3.42711C49.7765 2.74088 50.2427 2.08122 51.1752 1.44811C52.1077 0.815008 52.776 0.498994 53.18 0.500079C53.5168 0.480964 53.8507 0.570971 54.1334 0.757009C54.4957 0.992256 54.8778 1.43185 55.2797 2.0758L60.209 10.0503L65.1399 2.0823C65.5418 1.43836 65.8917 1.01448 66.1897 0.810669C66.4949 0.60489 66.8551 0.498755 67.2218 0.506584C67.6141 0.502248 68.2347 0.767848 69.0836 1.30339Z" fill="#FCBC09"/>
</g>
<defs>
<clipPath id="clip0_6721_320">
<rect width="70.6415" height="24" fill="white" transform="translate(0 0.5)"/>
</clipPath>
</defs>
</svg>
