<?xml version="1.0" standalone="no"?>
<!DOCTYPE svg PUBLIC "-//W3C//DTD SVG 20010904//EN"
 "http://www.w3.org/TR/2001/REC-SVG-20010904/DTD/svg10.dtd">
<svg version="1.0" xmlns="http://www.w3.org/2000/svg"
 width="346.000000pt" height="346.000000pt" viewBox="0 0 346.000000 346.000000"
 preserveAspectRatio="xMidYMid meet">
<metadata>
Created by potrace 1.14, written by Peter Selinger 2001-2017
</metadata>
<g transform="translate(0.000000,346.000000) scale(0.100000,-0.100000)"
fill="#000000" stroke="none">
<path d="M3197 3038 c-35 -60 -125 -149 -177 -175 l-44 -22 -13 37 c-7 20 -13
38 -13 38 0 1 -26 12 -57 25 -68 27 -175 86 -184 101 -4 6 -11 8 -17 4 -6 -3
3 -52 24 -128 26 -93 41 -129 61 -146 l25 -23 -23 -27 c-13 -15 -57 -59 -98
-98 l-73 -71 -42 12 c-56 16 -133 12 -187 -12 -44 -20 -45 -20 -89 -1 -87 37
-246 90 -344 113 -285 70 -525 43 -706 -79 -141 -94 -329 -349 -384 -518 -43
-133 -47 -195 -50 -733 l-2 -420 -30 -75 c-24 -60 -42 -87 -99 -145 -142 -144
-315 -190 -570 -151 -50 8 -94 12 -98 9 -28 -17 48 -103 117 -134 101 -44 309
-61 437 -34 151 32 248 82 345 180 97 97 124 154 229 485 34 106 75 198 110
243 12 17 15 17 43 3 54 -28 77 -69 97 -171 10 -53 6 -162 -10 -236 -8 -40
-13 -74 -11 -77 12 -12 82 -18 163 -15 l91 3 -10 -37 c-14 -53 -64 -149 -93
-181 -14 -15 -24 -31 -22 -37 4 -10 779 -15 1010 -7 98 3 107 5 107 23 0 18 6
19 56 15 111 -9 111 13 3 89 -45 31 -97 63 -116 71 -52 22 -149 23 -275 3
-152 -25 -249 -36 -400 -44 -81 -4 -88 -3 -103 18 -18 26 -20 71 -2 84 6 5 30
11 52 12 22 1 54 4 70 6 46 7 202 6 273 0 35 -4 69 -2 75 3 7 5 43 12 80 15
38 2 73 9 79 15 6 6 -27 27 -99 62 -111 53 -161 64 -233 49 -19 -4 -53 -10
-75 -12 -22 -3 -53 -8 -70 -12 -16 -4 -45 -8 -63 -10 -28 -2 -32 0 -27 14 12
29 36 111 41 139 27 159 34 219 34 290 0 94 11 122 83 215 61 79 155 153 252
198 116 54 136 56 158 20 19 -32 22 -88 8 -137 -10 -36 -1 -57 40 -95 28 -25
57 -42 90 -52 9 -3 20 -27 28 -61 12 -53 11 -58 -8 -74 -26 -22 -32 -56 -16
-107 20 -66 56 -135 71 -135 8 0 14 3 15 8 0 4 2 27 4 52 2 25 11 62 20 84 9
21 19 69 22 107 l6 68 28 -15 c16 -8 29 -18 30 -22 0 -4 2 -20 3 -37 8 -90 31
-141 89 -196 67 -62 77 -53 57 52 -6 30 -13 83 -16 119 -7 82 -40 141 -112
194 l-52 39 0 92 c0 83 3 96 26 131 45 66 67 140 69 236 l2 87 63 50 c35 28
70 61 78 73 9 13 19 25 22 28 4 3 17 30 29 61 l23 55 122 -27 c68 -16 142 -35
165 -45 38 -15 43 -15 60 0 10 9 27 16 38 16 12 0 27 13 38 34 l18 33 -30 44
c-17 24 -51 67 -77 96 -29 32 -49 65 -54 89 -7 36 -15 43 -85 83 -64 36 -75
46 -66 60 58 94 75 141 85 227 8 67 -7 75 -39 22z m-1603 -1930 c10 -24 22
-51 28 -62 5 -10 12 -43 15 -72 l6 -53 -54 6 c-30 3 -55 7 -56 7 -2 1 7 27 18
57 23 59 26 127 8 161 -11 20 -10 21 3 11 8 -7 23 -32 32 -55z"/>
</g>
</svg>
